<svg width="36" height="36" viewBox="0 0 36 36" fill="none" xmlns="http://www.w3.org/2000/svg">
<path d="M35.1051 14.6807L35.0165 14.3094H34.6348H18.3477H17.8641V14.793V21.0518V21.5354H18.3477H27.3298C27.0011 22.9402 26.0161 24.8127 24.0893 26.1239L23.9156 26.2421L23.8835 26.4498L23.8511 26.6593L23.8068 26.9453L24.038 27.1195L29.1877 30.9981L29.2964 31.0799L29.4319 31.0931L29.7887 31.1277L30.0003 31.1482L30.1584 31.0062C33.5478 27.9629 35.4846 23.4979 35.4846 18.241C35.4846 16.8229 35.3658 15.7726 35.1051 14.6807Z" fill="#4285F4" stroke="#281A0F" stroke-width="0.967059"/>
<path d="M30.1598 31.0071L30.5958 30.6145L30.1271 30.2615L24.6531 26.1388L24.3769 25.9308L24.0908 26.1248C22.7105 27.0607 20.84 27.728 18.3485 27.728C13.972 27.728 10.2598 24.9214 8.93737 21.0469L8.81562 20.6902L8.43997 20.7212L8.23654 20.738L8.09727 20.7495L7.98561 20.8335L2.63088 24.8625L2.51739 24.9479L2.46811 25.0811L2.39808 25.2704L2.32394 25.4707L2.42218 25.6605C5.35684 31.3282 11.3808 35.2164 18.3485 35.2164C23.1382 35.2164 27.1894 33.6816 30.1598 31.0071Z" fill="#34A853" stroke="#281A0F" stroke-width="0.967059"/>
<path d="M8.76925 21.5896L9.0514 21.3773L8.93505 21.0439C8.58508 20.0411 8.3839 18.9704 8.3839 17.8676C8.3839 16.7645 8.58515 15.6916 8.91835 14.6838L8.94618 14.5996L8.94233 14.5111L8.93263 14.2876L8.92275 14.0599L8.74092 13.9226L3.31908 9.82896L3.0878 9.65433L2.82477 9.77597L2.64738 9.858L2.4964 9.92782L2.42033 10.0757C1.21147 12.4264 0.51647 15.0692 0.51647 17.8676C0.51647 20.6661 1.21147 23.3087 2.42033 25.6594L2.68268 26.1696L3.14106 25.8246L8.76925 21.5896Z" fill="#FBBC05" stroke="#281A0F" stroke-width="0.967059"/>
<path d="M24.7302 10.3896L25.0626 10.6929L25.389 10.3831L30.2847 5.73569L30.6634 5.37628L30.276 5.02626C27.1827 2.23085 23.1551 0.51647 18.3485 0.51647C11.3808 0.51647 5.35684 4.40456 2.42218 10.0723L2.23457 10.4346L2.56019 10.6805L8.16912 14.9157L8.69992 15.3165L8.91743 14.6879C10.2589 10.8113 13.9724 8.00477 18.3485 8.00477C21.4584 8.00477 23.5443 9.30756 24.7302 10.3896Z" fill="#EB4335" stroke="#281A0F" stroke-width="0.967059"/>
</svg>
