<svg width="36" height="36" viewBox="0 0 36 36" fill="none" xmlns="http://www.w3.org/2000/svg">
<g clip-path="url(#clip0_2907_55608)">
<path d="M12.2142 31.5179L24.0016 35.3988L35.4016 35.3989V4.7988H24.0016L12.2142 0.621094L1.28467 4.4832C0.927932 4.60926 0.601562 4.77028 0.601562 5.12688V34.7364C0.601562 35.093 0.927932 35.5061 1.28467 35.38C4.92785 34.0927 8.57104 32.8053 12.2142 31.5179Z" fill="#DDF8F7"/>
<path d="M12.2142 0.621094L1.28467 4.4832C0.927932 4.60926 0.601562 4.77028 0.601562 5.12688V34.7364C0.601562 35.093 0.927932 35.5061 1.28467 35.38C4.92785 34.0927 8.57104 32.8053 12.2142 31.5179V0.621094Z" fill="#BEDAD9"/>
<path d="M12.2137 30.3164C8.57049 31.6038 4.92795 32.8915 1.28477 34.1789C0.928032 34.305 0.601562 33.8921 0.601562 33.5355V34.7355C0.601562 35.0921 0.928032 35.505 1.28477 35.3789C4.92795 34.0915 8.57049 32.8038 12.2137 31.5164L24.0016 35.3977H35.4016V34.1977H24.0016L12.2137 30.3164Z" fill="#BEDAD9"/>
<path d="M28.1984 15.3398C25.5475 15.3398 23.3984 17.5283 23.3984 20.2279C23.3984 23.8346 28.1984 28.797 28.1984 28.797C28.1984 28.797 32.9984 23.8346 32.9984 20.2279C32.9984 17.5283 30.8494 15.3398 28.1984 15.3398Z" fill="#FF9751"/>
<path d="M7.20156 0.597656C5.21333 0.597656 3.60156 2.25643 3.60156 4.30264C3.60156 7.03634 7.20156 10.7977 7.20156 10.7977C7.20156 10.7977 10.8016 7.03634 10.8016 4.30264C10.8016 2.25643 9.18979 0.597656 7.20156 0.597656Z" fill="#FF9751"/>
<path d="M5.36406 1.12109C4.31008 1.76735 3.60156 2.9484 3.60156 4.30273C3.60156 7.03644 7.20156 10.7973 7.20156 10.7973C7.20156 10.7973 7.69433 10.2807 8.3125 9.49766C8.0499 9.21919 4.80156 5.72836 4.80156 3.10273C4.80156 2.37305 5.01015 1.69459 5.36406 1.12109Z" fill="#FF7F29"/>
<path d="M8.40002 4.19355C8.40002 4.85488 7.86276 5.391 7.20001 5.391C6.53726 5.391 6 4.85488 6 4.19355C6 3.53221 6.53726 2.99609 7.20001 2.99609C7.86276 2.99609 8.40002 3.53221 8.40002 4.19355Z" fill="#DDF8F7"/>
<path d="M6.00391 4.08007C6.16072 4.00743 6.33141 3.96945 6.5043 3.96875C7.16712 3.96875 7.70441 4.50499 7.7043 5.1664C7.70414 5.20437 7.70217 5.24231 7.6984 5.28009C8.12405 5.08522 8.39721 4.66107 8.39801 4.19376C8.39812 3.53235 7.86083 2.99611 7.19803 2.99609C6.57953 2.99633 6.06252 3.46565 6.00391 4.08007Z" fill="#BEDAD9"/>
<path d="M25.4973 16.1875C24.2309 17.0675 23.3984 18.5479 23.3984 20.227C23.3984 23.8336 28.1984 28.7957 28.1984 28.7957C28.1984 28.7957 28.6829 28.2806 29.3223 27.5113C29.0909 27.2699 24.5984 22.5421 24.5984 19.027C24.5984 17.9668 24.9342 16.9884 25.4973 16.1875Z" fill="#FF7F29"/>
<path d="M29.8016 20.0876C29.8016 20.9602 29.0852 21.6675 28.2016 21.6675C27.3179 21.6675 26.6016 20.9602 26.6016 20.0876C26.6016 19.2151 27.3179 18.5078 28.2016 18.5078C29.0852 18.5078 29.8016 19.2151 29.8016 20.0876Z" fill="#DDF8F7"/>
<path d="M26.6367 19.75C26.7554 19.7224 26.8769 19.7082 26.9988 19.7078C27.8823 19.708 28.5984 20.4152 28.5984 21.2875C28.5982 21.4006 28.5855 21.5134 28.5609 21.6238C29.2847 21.4576 29.7973 20.8212 29.7984 20.0875C29.7984 19.2152 29.0823 18.508 28.1988 18.5078C27.4473 18.5082 26.7973 19.0251 26.6367 19.75Z" fill="#BEDAD9"/>
<path d="M7.2 0C5.24386 0 3.62672 1.36177 3.14883 3.18856L1.08281 3.91862C0.882981 3.98924 0.645612 4.08128 0.421875 4.25962C0.198142 4.43798 0 4.73615 0 5.12795V34.7367C0 35.077 0.157175 35.4235 0.362109 35.6414C0.633908 35.9303 1.04458 36.0992 1.50703 35.9367C5.08638 34.6721 8.64037 33.4162 12.2191 32.1517L23.8125 35.9683C23.873 35.9883 23.9363 35.9986 24 35.9988H35.4C35.7314 35.9988 36 35.7302 36 35.3988V4.79984C36 4.46849 35.7314 4.1999 35.4 4.19986H24.1031L12.4137 0.0562461C12.3567 0.0360635 12.2971 0.0246116 12.2367 0.0222531C12.1606 0.0193051 12.0847 0.0308704 12.0129 0.0562461L9.7207 0.865987C9.02068 0.325501 8.1513 0 7.2 0ZM7.2 1.19996C8.84279 1.19996 10.1988 2.57309 10.1988 4.30415C10.1988 5.49045 9.37783 6.98767 8.50664 8.22863C7.85248 9.16044 7.48533 9.53195 7.2 9.84576C6.91482 9.53214 6.54305 9.16075 5.88867 8.22863C5.01748 6.98767 4.20117 5.46852 4.20117 4.30415C4.20117 2.57309 5.55721 1.19996 7.2 1.19996ZM12.2121 1.25856L23.7996 5.36584C23.864 5.38852 23.9318 5.39997 24 5.39983H34.8V34.7989H24.0961L12.4008 30.9482C12.2745 30.9068 12.1381 30.9084 12.0129 30.953C8.21102 32.2919 4.19211 33.7177 1.20234 34.7696L1.20008 5.18072C1.25824 5.14018 1.33641 5.10151 1.48367 5.04947L3.01648 4.50806C3.09531 6.01595 4.02135 7.65386 4.91023 8.92002C5.83904 10.2431 6.76531 11.2133 6.76531 11.2133C7.0017 11.4609 7.39728 11.4609 7.63367 11.2133C7.63367 11.2133 8.56111 10.2431 9.48992 8.92002C10.4187 7.59699 11.3989 5.87106 11.3989 4.30416C11.3989 3.3807 11.1107 2.52417 10.6243 1.81987L12.2121 1.25856ZM7.2 2.39758C6.20899 2.39758 5.39883 3.2054 5.39883 4.19166C5.39883 5.17792 6.19259 5.9916 7.19297 5.9916C8.19335 5.9916 8.99766 5.20136 8.99766 4.19166C8.99766 3.18197 8.1746 2.39758 7.2 2.39758ZM7.8 4.19635C7.8 4.53272 7.52276 4.79399 7.20234 4.79399C6.87723 4.79399 6.6 4.53272 6.6 4.19635C6.6 3.85998 6.87488 3.59871 7.20234 3.59871C7.52514 3.59871 7.8 3.85998 7.8 4.19635ZM24.0035 8.39972C23.2033 8.39972 23.2033 9.59968 24.0035 9.59968H25.2012C26.0014 9.59968 26.0014 8.39972 25.2012 8.39972H24.0035ZM27.6023 8.39972C26.8022 8.39972 26.8022 9.59968 27.6023 9.59968H28.8012C29.6014 9.59968 29.6014 8.39972 28.8012 8.39972H27.6023ZM31.2012 8.39972C30.401 8.39972 30.401 9.59968 31.2012 9.59968H32.4C33.2002 9.59968 33.2002 8.39972 32.4 8.39972H31.2012ZM9.62695 10.1997V11.3996H10.827V10.1997H9.62695ZM12.027 10.1997V11.3996H13.227V10.1997H12.027ZM14.4281 10.1997V11.3996H15.6281V10.1997H14.4281ZM16.8281 10.1997V11.3996H17.1117C17.5367 11.3996 17.7159 11.4444 17.9086 11.4746L18.1383 10.2969C17.8624 10.2477 17.5745 10.1997 17.1293 10.1997L16.8281 10.1997ZM19.4227 10.7411L18.8824 11.8109C18.9719 11.8591 19.1382 11.9446 19.3195 12.0711C19.5009 12.1976 19.6296 12.2955 19.7426 12.3992L20.543 11.5039C20.4563 11.4252 20.2344 11.2394 19.9957 11.075C19.757 10.9107 19.4227 10.7411 19.4227 10.7411ZM21.423 12.5351L20.4129 13.189C20.4463 13.2336 20.5679 13.44 20.6742 13.6671C20.7806 13.8942 20.8512 14.1277 20.8512 14.1277L21.9961 13.7667C21.9358 13.5748 21.8703 13.4069 21.7605 13.1562C21.6508 12.9055 21.423 12.5351 21.423 12.5351ZM15.6 13.7995C15.2999 13.7995 15 13.9994 15 14.3995V14.9995H14.4C13.5998 14.9995 13.5998 16.1995 14.4 16.1995H15V16.7994C15 17.5996 16.2 17.5996 16.2 16.7994V16.1995H16.8C17.6002 16.1995 17.6002 14.9995 16.8 14.9995H16.2V14.3995C16.2 13.9994 15.9001 13.7995 15.6 13.7995ZM28.2 14.7417C25.2118 14.7417 22.8 17.2115 22.8 20.2294C22.8 22.2192 24.0822 24.4804 25.3113 26.2128C26.5404 27.9452 27.7699 29.215 27.7699 29.215C28.0059 29.4596 28.3976 29.4596 28.6336 29.215C28.6336 29.215 29.8631 27.9452 31.0922 26.2128C32.3213 24.4804 33.5988 22.2426 33.5988 20.2294C33.5988 17.2115 31.1882 14.7417 28.2 14.7417ZM22.2234 15.0968C21.7327 15.1236 21.3924 15.1358 21.0258 15.1413C21.0305 15.3173 21.0303 15.4224 21.0106 15.6628C20.9909 15.9032 20.9518 16.0686 20.9297 16.1878L22.1004 16.4479C22.2189 15.9238 22.2311 15.512 22.227 15.2397L22.2234 15.0968ZM28.2 15.9417C30.502 15.9417 32.4023 17.8483 32.4023 20.2294C32.4023 21.8328 31.2914 23.8768 30.1125 25.5214C29.1765 26.8272 28.4696 27.6015 28.2012 27.912C27.9313 27.6165 27.1294 26.6972 26.291 25.5214C25.1162 23.8739 24.0012 21.8368 24.0012 20.2294C24.0012 17.8483 25.898 15.9417 28.2 15.9417ZM20.5629 17.1557C20.4748 17.3112 20.3977 17.4462 20.2641 17.6221C20.1605 17.7675 20.0922 17.8423 19.9535 17.9947L20.8277 18.8173C20.9924 18.6374 21.0923 18.5222 21.1969 18.3814C21.2589 18.2929 21.2903 18.2573 21.3902 18.1049C21.4968 17.9466 21.5466 17.8478 21.6246 17.7193L20.5629 17.1557ZM28.2 17.908C26.9844 17.908 26.0027 18.8867 26.0027 20.0876C26.0027 21.2885 26.9844 22.2684 28.2 22.2684C29.4156 22.2684 30.4008 21.2885 30.4008 20.0876C30.4008 18.8867 29.4156 17.908 28.2 17.908ZM19.1496 18.6381C19.018 18.7195 18.8639 18.7972 18.6598 18.8877C18.4556 18.9781 18.2928 19.0191 18.1969 19.0517L18.518 20.2071C18.518 20.2071 18.7981 20.1352 19.1344 19.9915C19.4933 19.8382 19.7648 19.6681 19.7648 19.6681L19.1496 18.6381ZM28.2 19.108C28.7471 19.108 29.2008 19.5435 29.2008 20.0876C29.2008 20.6317 28.7494 21.0684 28.2 21.0684C27.6506 21.0684 27.2027 20.6317 27.2027 20.0876C27.2027 19.5435 27.6529 19.108 28.2 19.108ZM6.23203 19.3634L6.53906 20.5224C6.95641 20.4222 7.23897 20.3967 7.57734 20.397C7.57485 19.8902 7.57394 19.6127 7.57503 19.1994C7.10722 19.1898 6.58947 19.2648 6.23203 19.3634ZM8.77266 19.1994V20.3993H9.97265V19.1994L8.77266 19.1994ZM11.1738 19.1994V20.3993H12.3738V19.1994L11.1738 19.1994ZM13.5738 19.1994V20.3993H14.7738V19.1994L13.5738 19.1994ZM15.9727 19.1994V20.3993L17.1785 20.3971C17.1715 19.9344 17.1726 19.5981 17.1726 19.1994L15.9727 19.1994ZM4.97813 19.8779C4.52581 20.1413 4.21025 20.4052 3.90117 20.7005C4.19933 21.0006 4.47239 21.2677 4.75781 21.5477C4.99395 21.3077 5.2508 21.1074 5.5793 20.9138L4.97813 19.8779ZM3.08672 21.7856C2.84742 22.1949 2.67124 22.6713 2.58047 23.0453L3.74883 23.3395C3.81203 23.0396 3.96877 22.6549 4.13203 22.375L3.08672 21.7856ZM7.8 22.7993C7.49993 22.7993 7.2 22.9992 7.2 23.3992V23.9992H6.6C5.79981 23.9992 5.79981 25.1992 6.6 25.1992H7.2V25.7992C7.2 26.5993 8.4 26.5993 8.4 25.7992V25.1992H9C9.8002 25.1992 9.8002 23.9992 9 23.9992H8.4V23.3992C8.4 22.9991 8.10007 22.7993 7.8 22.7993ZM2.42578 24.3894C2.44324 24.8475 2.49889 25.2782 2.62851 25.73L3.78281 25.396C3.6882 25.0603 3.63273 24.7253 3.63165 24.366L2.42578 24.3894ZM3.18164 26.9698C3.42039 27.3644 3.73152 27.7454 4.03711 28.0221L4.85977 27.1479C4.59058 26.8985 4.39048 26.6416 4.20234 26.3429L3.18164 26.9698ZM5.1375 28.8073C5.71686 29.107 6.17441 29.2268 6.41602 29.2748L6.67617 28.1053C6.25278 28.0089 6.00924 27.9021 5.70117 27.7491L5.1375 28.8073ZM7.73672 28.1991V29.399H8.9332V28.1991H7.73672ZM10.1379 28.1991V29.399H11.3379V28.1991H10.1379ZM12.5367 28.1991V29.399H13.7367V28.1991H12.5367ZM14.9391 28.1991V29.399H16.1391V28.1991H14.9391ZM17.3379 28.1991V29.399H18.5379V28.1991H17.3379ZM19.7379 28.1991V29.399H20.9379V28.1991H19.7379ZM22.1414 28.1991V29.399H23.3414V28.1991H22.1414ZM24.5367 28.1991V29.399H25.7742V28.1991H24.5367Z" fill="#281A0F"/>
</g>
<defs>
<clipPath id="clip0_2907_55608">
<rect width="36" height="36" fill="white"/>
</clipPath>
</defs>
</svg>
