<svg width="36" height="36" viewBox="0 0 36 36" fill="none" xmlns="http://www.w3.org/2000/svg">
<path d="M3.36328 16.897V11.1092C3.36328 9.23244 4.51455 7.56066 6.26511 6.89828L18.7871 2.16704C20.7427 1.44158 22.8402 2.87677 22.8402 4.97429V10.9672" fill="#4F3726"/>
<path d="M3.36328 16.8892V11.1014C3.36328 9.22463 4.51455 7.55285 6.26511 6.89047L18.7871 2.15923C20.7427 1.43377 22.8402 2.86896 22.8402 4.96648V10.9594" stroke="#281A0F" stroke-width="1.57708" stroke-linecap="round" stroke-linejoin="round"/>
<path d="M27.8711 20.108C27.2088 20.7546 26.8303 21.6851 26.9249 22.6787C27.0668 24.3819 28.6281 25.6278 30.3314 25.6278H33.3278V27.5045C33.3278 30.7691 30.6626 33.4343 27.398 33.4343H11.4695C12.7785 32.2831 13.6143 30.5956 13.6143 28.7031C13.6143 25.2178 10.7913 22.3948 7.30598 22.3948C5.82353 22.3948 4.45147 22.9152 3.36328 23.7826V16.8908C3.36328 13.6262 6.02853 10.9609 9.29309 10.9609H27.398C30.6626 10.9609 33.3278 13.6262 33.3278 16.8908V19.1618H30.1421C29.259 19.1618 28.4546 19.5087 27.8711 20.108Z" fill="#D27330" stroke="#281A0F" stroke-width="1.57708" stroke-linecap="round" stroke-linejoin="round"/>
<path d="M34.9992 20.7727V24.0215C34.9992 24.8889 34.3053 25.5986 33.4221 25.6301H30.331C28.6278 25.6301 27.0665 24.3842 26.9245 22.681C26.8299 21.6874 27.2084 20.7569 27.8708 20.1103C28.4543 19.511 29.2586 19.1641 30.1418 19.1641H33.4221C34.3053 19.1956 34.9992 19.9053 34.9992 20.7727Z" fill="#D79961" stroke="#281A0F" stroke-width="1.57708" stroke-linecap="round" stroke-linejoin="round"/>
<path d="M10.4609 17.6641H21.5005" stroke="#281A0F" stroke-width="1.57708" stroke-linecap="round" stroke-linejoin="round"/>
<path d="M13.6167 28.699C13.6167 30.5914 12.7808 32.2789 11.4718 33.4302C10.3521 34.408 8.90118 35.0073 7.30833 35.0073C3.82298 35.0073 1 32.1843 1 28.699C1 26.7118 1.91471 24.9297 3.36562 23.7785C4.45381 22.9111 5.82587 22.3906 7.30833 22.3906C10.7937 22.3906 13.6167 25.2136 13.6167 28.699Z" fill="#BEDAD9" stroke="#281A0F" stroke-width="1.57708" stroke-miterlimit="10" stroke-linecap="round" stroke-linejoin="round"/>
<path d="M7.70182 26.7305V29.0961L5.73047 30.2789" fill="#DDEFF9"/>
<path d="M7.70182 26.7305V29.0961L5.73047 30.2789" stroke="#281A0F" stroke-width="1.57708" stroke-miterlimit="10" stroke-linecap="round" stroke-linejoin="round"/>
</svg>
